Coordinates
version=1
nRows=40
nColumns=30
inDegrees=yes

Units are S.I. units (second, meters, Newtons, ...)
Angles are in degrees.

endheader
time	floatyaw	floatroll	floatpitch	floatx	floaty	floatz	pro_sup_l	deviation_l	flexion_l	cmc_flexion_l	cmc_abduction_l	mp_flexion_l	ip_flexion_l	2mcp_flexion_l	2mcp_abduction_l	2pm_flexion_l	2md_flexion_l	3mcp_flexion_l	3mcp_abduction_l	3pm_flexion_l	3md_flexion_l	4mcp_flexion_l	4mcp_abduction_l	4pm_flexion_l	4md_flexion_l	5mcp_flexion_l	5mcp_abduction_l	5pm_flexion_l	5md_flexion_l
-0.495000	-2.367547	-3.808797	97.590660	-0.094167	-0.184059	-0.028561	87.128685	3.502964	-1.663839	12.792238	7.154383	-22.984223	-35.633792	39.084163	9.642429	48.867982	33.584638	24.721716	5.296945	48.054763	33.435021	14.815477	-4.882906	62.825705	43.038297	9.960984	-9.878572	61.847012	41.588806
-0.485000	-2.367547	-3.808797	97.590660	-0.093939	-0.183758	-0.028322	87.153062	3.593699	-1.750869	12.787240	7.163066	-22.970390	-35.618067	39.069200	9.618937	48.873037	33.564528	24.754239	5.316347	48.061234	33.412047	14.908601	-4.888751	62.750482	42.991031	9.934070	-9.883028	61.923219	41.549198
-0.475000	-2.367547	-3.808797	97.590660	-0.093674	-0.183438	-0.028076	87.183768	3.707902	-1.858628	12.767884	7.234370	-22.948082	-35.595886	39.044488	9.603320	48.897492	33.543434	24.767516	5.338765	48.090964	33.401063	14.992323	-4.887327	62.672254	42.951775	9.928247	-9.926860	62.008645	41.495556
-0.465000	-2.367547	-3.808797	97.590660	-0.093368	-0.183104	-0.027816	87.234001	3.826894	-1.980450	12.742188	7.378983	-22.920729	-35.578864	39.000646	9.585204	48.936977	33.521491	24.757353	5.357838	48.134962	33.397665	15.045032	-4.880124	62.602803	42.921513	9.928400	-9.980712	62.065471	41.428879
-0.455000	-2.367547	-3.808797	97.590660	-0.093015	-0.182755	-0.027535	87.314528	3.931581	-2.107925	12.724328	7.584821	-22.890364	-35.578429	38.931326	9.553960	48.970407	33.494889	24.726812	5.367327	48.168847	33.390974	15.049724	-4.869519	62.545715	42.894894	9.918802	-10.007709	62.052287	41.355358
-0.445000	-2.367547	-3.808797	97.590660	-0.092609	-0.182391	-0.027219	87.428278	4.008352	-2.230996	12.726355	7.820674	-22.858509	-35.601105	38.836074	9.503155	48.971384	33.459655	24.684958	5.364377	48.164157	33.369740	15.003528	-4.858048	62.494156	42.862778	9.894011	-9.980208	61.941419	41.282447
-0.435000	-2.367547	-3.808797	97.590660	-0.092143	-0.182018	-0.026861	87.567325	4.052661	-2.337261	12.749873	8.046998	-22.828360	-35.646404	38.722912	9.433118	48.924056	33.416128	24.644826	5.351134	48.103227	33.329392	14.922822	-4.848080	62.435093	42.817898	9.864042	-9.892073	61.733457	41.213916
-0.425000	-2.367547	-3.808797	97.590660	-0.091612	-0.181645	-0.026457	87.715010	4.069405	-2.411644	12.782608	8.229069	-22.806086	-35.708219	38.609488	9.350433	48.833690	33.371224	24.621904	5.333629	47.990036	33.276145	14.839345	-4.841237	62.359872	42.760686	9.851644	-9.761298	61.460793	41.148139
-0.415000	-2.367547	-3.808797	97.590660	-0.091016	-0.181287	-0.026011	87.852687	4.070642	-2.438528	12.801832	8.347908	-22.799188	-35.777958	38.521367	9.265085	48.726884	33.337079	24.632926	5.318764	47.852762	33.225905	14.788883	-4.837583	62.276372	42.701367	9.883161	-9.622841	61.178107	41.081543
-0.405000	-2.367547	-3.808797	97.590660	-0.090359	-0.180954	-0.025534	87.967090	4.071878	-2.407654	12.782842	8.405675	-22.811976	-35.846475	38.486213	9.186805	48.642499	33.326693	24.693469	5.311292	47.737285	33.198271	14.799373	-4.835308	62.213732	42.656125	9.976441	-9.515301	60.945019	41.014913
-0.395000	-2.367547	-3.808797	97.590660	-0.089654	-0.180648	-0.025041	88.054111	4.088053	-2.322270	12.708449	8.423871	-22.840927	-35.903500	38.524296	9.121842	48.616948	33.348344	24.813473	5.312396	47.692399	33.208080	14.884370	-4.831424	62.212589	42.639000	10.130727	-9.466654	60.808225	40.957380
-0.385000	-2.367547	-3.808797	97.590660	-0.088919	-0.180357	-0.024548	88.118111	4.130041	-2.204821	12.575612	8.434724	-22.873723	-35.936651	38.639287	9.070969	48.668174	33.401104	24.992251	5.320183	47.750027	33.258348	15.042619	-4.823077	62.303584	42.654516	10.323977	-9.484154	60.788008	40.924297
-0.375000	-2.367547	-3.808797	97.590660	-0.088180	-0.180056	-0.024073	88.168733	4.202314	-2.094454	12.396953	8.468609	-22.893924	-35.933665	38.815248	9.029492	48.784846	33.473863	25.216384	5.331227	47.908943	33.338532	15.260766	-4.808645	62.487614	42.695975	10.520644	-9.552194	60.872221	40.930042
-0.365000	-2.367547	-3.808797	97.590660	-0.087461	-0.179715	-0.023630	88.216982	4.302212	-2.034170	12.196692	8.542343	-22.889321	-35.888564	39.022786	8.989756	48.928328	33.549131	25.462851	5.342038	48.132777	33.429538	15.516792	-4.788159	62.732361	42.750421	10.687464	-9.639097	61.020534	40.980812
-0.355000	-2.367547	-3.808797	97.590660	-0.086775	-0.179310	-0.023221	88.271441	4.421123	-2.052599	12.002286	8.653690	-22.858703	-35.807381	39.230938	8.945636	49.049162	33.610076	25.706272	5.349994	48.365985	33.512757	15.784511	-4.763214	62.987725	42.806235	10.809253	-9.710088	61.179854	41.072038
-0.345000	-2.367547	-3.808797	97.590660	-0.086119	-0.178830	-0.022841	88.336346	4.547552	-2.150591	11.835085	8.785557	-22.812327	-35.708007	39.417086	8.896932	49.109331	33.646758	25.926283	5.354016	48.558598	33.577594	16.040173	-4.736782	63.207789	42.857608	10.894914	-9.740722	61.306652	41.191194
-0.335000	-2.367547	-3.808797	97.590660	-0.085471	-0.178276	-0.022471	88.413884	4.671227	-2.300361	11.704047	8.918991	-22.765820	-35.613109	39.569200	8.850937	49.096394	33.657888	26.111303	5.355248	48.683635	33.622980	16.269333	-4.713007	63.363345	42.903361	10.968647	-9.724986	61.386233	41.322991
-0.325000	-2.367547	-3.808797	97.590660	-0.084797	-0.177651	-0.022084	88.510335	4.786285	-2.456365	11.604752	9.048895	-22.731667	-35.540320	39.681091	8.819417	49.021467	33.647748	26.257803	5.357310	48.737325	33.652542	16.469403	-4.696446	63.439493	42.942398	11.051529	-9.675452	61.437220	41.452875
-0.315000	-2.367547	-3.808797	97.590660	-0.084061	-0.176951	-0.021647	88.641931	4.891458	-2.570411	11.523140	9.193540	-22.713456	-35.495040	39.746278	8.811687	48.904867	33.621157	26.367061	5.365277	48.725962	33.667477	16.645271	-4.690325	63.426091	42.970071	11.146813	-9.616857	61.495492	41.566721
-0.305000	-2.367547	-3.808797	97.590660	-0.083232	-0.176160	-0.021129	88.835541	4.986852	-2.603862	11.442063	9.391299	-22.705339	-35.468880	39.755723	8.827143	48.761317	33.580340	26.442402	5.382950	48.652646	33.662764	16.801656	-4.694315	63.312799	42.977770	11.240641	-9.576423	61.584094	41.648063
-0.295000	-2.367547	-3.808797	97.590660	-0.082293	-0.175256	-0.020502	89.122341	5.069252	-2.534844	11.348963	9.685159	-22.695626	-35.443802	39.700845	8.851794	48.595227	33.526064	26.489055	5.409196	48.515128	33.630247	16.939855	-4.703219	63.094398	42.955314	11.318961	-9.573961	61.686045	41.676733
-0.285000	-2.367547	-3.808797	97.590660	-0.081228	-0.174217	-0.019742	89.526341	5.129349	-2.362195	11.242982	10.103124	-22.671601	-35.399976	39.579315	8.861190	48.407888	33.462514	26.516792	5.435507	48.315368	33.567406	17.062998	-4.707748	62.782725	42.894717	11.389373	-9.614173	61.737622	41.632291
-0.275000	-2.367547	-3.808797	97.590660	-0.080015	-0.173023	-0.018828	90.051699	5.153958	-2.107475	11.138730	10.645230	-22.623431	-35.324339	39.399112	8.827893	48.209218	33.402319	26.542956	5.447348	48.071089	33.485765	17.185052	-4.697451	62.415353	42.793935	11.492005	-9.683558	61.649516	41.502368
-0.265000	-2.367547	-3.808797	97.590660	-0.078603	-0.171648	-0.017734	90.673313	5.134151	-1.813984	11.063374	11.283598	-22.546949	-35.216484	39.176995	8.728978	48.023755	33.366754	26.592706	5.430247	47.817913	33.411445	17.333243	-4.664671	62.051412	42.659033	11.688992	-9.753964	61.348655	41.292065
-0.255000	-2.367547	-3.808797	97.590660	-0.076913	-0.170051	-0.016425	91.335470	5.077302	-1.541593	11.045730	11.974170	-22.445888	-35.089384	38.931583	8.550680	47.885472	33.378552	26.695765	5.378253	47.598997	33.374667	17.538435	-4.607823	61.752648	42.503467	12.034629	-9.792658	60.822703	41.029052
-0.245000	-2.367547	-3.808797	97.590660	-0.074842	-0.168166	-0.014858	91.963039	5.018517	-1.359315	11.100811	12.673493	-22.333132	-34.964826	38.675939	8.290749	47.825082	33.450286	26.881675	5.299820	47.450364	33.393353	17.819823	-4.532326	61.559163	42.344353	12.540765	-9.775438	60.146721	40.761288
-0.235000	-2.367547	-3.808797	97.590660	-0.072287	-0.165905	-0.012987	92.486404	5.025386	-1.340023	11.218183	13.354395	-22.229059	-34.866099	38.414973	7.959965	47.859211	33.575594	27.174725	5.216920	47.393343	33.461472	18.177308	-4.448539	61.474738	42.196757	13.158248	-9.697133	59.476257	40.547708
-0.225000	-2.367547	-3.808797	97.590660	-0.069168	-0.163174	-0.010774	92.874233	5.190588	-1.559490	11.363202	14.018130	-22.155137	-34.811299	38.148228	7.581693	47.987685	33.729099	27.587346	5.157092	47.436458	33.550163	18.599186	-4.367792	61.469570	42.067734	13.789793	-9.574206	59.001808	40.443418
-0.215000	-2.367547	-3.808797	97.590660	-0.065440	-0.159891	-0.008194	93.160099	5.610753	-2.095875	11.493878	14.702735	-22.123639	-34.809198	37.873547	7.186719	48.195994	33.874638	28.111767	5.142230	47.577777	33.620475	19.078719	-4.298871	61.494864	41.952806	14.332305	-9.436922	58.876503	40.480875
-0.205000	-2.367547	-3.808797	97.590660	-0.061088	-0.155999	-0.005235	93.446676	6.356653	-3.021573	11.585342	15.485597	-22.128036	-34.857786	37.586649	6.803516	48.455785	33.976483	28.713919	5.179298	47.799114	33.638920	19.623379	-4.246529	61.498047	41.837793	14.726569	-9.313563	59.146585	40.651203
-0.195000	-2.367547	-3.808797	97.590660	-0.056122	-0.151488	-0.001902	93.880131	7.445680	-4.382457	11.647130	16.474818	-22.140138	-34.945456	37.275624	6.448537	48.722234	34.008758	29.334772	5.256716	48.055242	33.587015	20.244659	-4.211469	61.432224	41.706203	14.984617	-9.214189	59.719235	40.894830
-0.185000	-2.367547	-3.808797	97.590660	-0.050559	-0.146404	0.001787	94.604218	8.828256	-6.168899	11.722673	17.783802	-22.117541	-35.055540	36.914243	6.121786	48.934351	33.960899	29.899953	5.347363	48.269785	33.461744	20.932364	-4.190237	61.258875	41.547796	15.177005	-9.122319	60.386279	41.111585
-0.175000	-2.367547	-3.808797	97.590660	-0.044418	-0.140863	0.005804	95.716157	10.394423	-8.291343	11.872279	19.490673	-22.019425	-35.174169	36.460571	5.808965	49.022433	33.837815	30.334066	5.416677	48.345666	33.269315	21.632418	-4.174781	60.943789	41.362033	15.384887	-8.998230	60.894353	41.192409
-0.165000	-2.367547	-3.808797	97.590660	-0.037715	-0.135052	0.010109	97.243944	11.998803	-10.573695	12.150078	21.596308	-21.823887	-35.298860	35.866108	5.487847	48.920783	33.654024	30.576475	5.432991	48.188613	33.016843	22.249001	-4.153409	60.449945	41.153953	15.641426	-8.791918	61.030417	41.061632
-0.155000	-2.367547	-3.808797	97.590660	-0.030461	-0.129212	0.014664	99.149275	13.495822	-12.770596	12.585196	24.002031	-21.539142	-35.443407	35.096192	5.136652	48.584345	33.425077	30.598243	5.377287	47.737203	32.707358	22.677727	-4.114744	59.739971	40.926596	15.894812	-8.462399	60.688976	40.710243
-0.145000	-2.367547	-3.808797	97.590660	-0.022663	-0.123620	0.019436	101.343938	14.774059	-14.605419	13.170631	26.521592	-21.204397	-35.635813	34.157474	4.744604	48.012702	33.163858	30.420127	5.250559	46.993340	32.343378	22.857197	-4.053841	58.802863	40.677692	16.016793	-8.001166	59.903781	40.205221
-0.135000	-2.367547	-3.808797	97.590660	-0.014335	-0.118555	0.024395	103.702153	15.779040	-15.820163	13.857489	28.924685	-20.880924	-35.909165	33.125307	4.325042	47.282029	32.888052	30.129001	5.077452	46.047227	31.941239	22.816222	-3.977127	57.703297	40.406021	15.859066	-7.455244	58.849005	39.675588
-0.125000	-2.367547	-3.808797	97.590660	-0.005533	-0.114279	0.029495	106.059644	16.517869	-16.227056	14.551435	30.994673	-20.636559	-36.287594	32.162190	3.927392	46.571489	32.637396	29.887684	4.904465	45.087853	31.552008	22.698642	-3.902650	56.625261	40.125945	15.339195	-6.938982	57.823047	39.288402
-0.115000	-2.367547	-3.808797	97.590660	0.003622	-0.111012	0.034643	108.206004	17.046233	-15.751531	15.111904	32.581070	-20.526955	-36.770420	31.516442	3.639699	46.157705	32.490564	29.930864	4.791023	44.387510	31.278323	22.758448	-3.854506	55.869392	39.882570	14.529660	-6.620679	57.214566	39.225012
-0.105000	-2.367547	-3.808797	97.590660	0.012917	-0.108897	0.039681	109.888582	17.444937	-14.455509	15.360298	33.633871	-20.577480	-37.319595	31.490357	3.573707	46.355629	32.567758	30.538593	4.793749	44.252678	31.273553	23.324565	-3.853735	55.782780	39.758523	13.721824	-6.677266	57.433297	39.653660
